<svg width="235" height="56" viewBox="0 0 235 56" fill="none" xmlns="http://www.w3.org/2000/svg">
<g clip-path="url(#clip0_8_5)">
<path fill-rule="evenodd" clip-rule="evenodd" d="M20.3416 0.504897C18.3839 0.127906 15.404 -0.138008 13.1691 0.077416C18.6479 1.53826 23.8895 4.25461 27.8582 8.41161C35.7156 16.6448 35.582 27.7526 25.2424 32.6703C24.3705 33.0843 24.1968 33.5286 24.9017 34.2826C28.7001 38.7493 36.4639 40.3212 43.3926 38.1771C48.2133 36.6826 54.0195 32.29 55.0284 28.0151C55.0284 27.8536 55.025 27.692 55.015 27.5304C54.7678 23.259 51.1264 19.0751 48.2768 16.15C44.8458 12.6326 35.5352 3.43668 20.3416 0.504897Z" fill="white"/>
<path d="M33.4774 41.5835C14.9263 40.0755 19.7537 21.7275 19.7537 21.7275C23.4652 21.5726 29.0008 23.9793 31.3594 25.0968C33.287 19.8997 31.5097 13.5885 26.5688 8.41161C22.6534 4.30846 17.4953 1.6123 12.0967 0.138C-0.150368 1.6527 -3.57547e-05 27.8199 -3.57547e-05 27.8199C-0.0200801 57.0031 12.815 56.0135 14.5588 55.9933C33.4774 55.7711 55.0284 37.174 55.0251 28.0084C55.0284 28.005 49.9271 42.9198 33.4774 41.5835Z" fill="white"/>
<path d="M209.5 9.83209C210.232 9.83209 210.847 10.0879 211.351 10.5928C211.855 11.1011 212.109 11.7238 212.109 12.4609C212.109 13.1981 211.855 13.8208 211.351 14.3291C210.847 14.8373 210.229 15.0898 209.5 15.0898C208.769 15.0898 208.151 14.8373 207.646 14.3291C207.142 13.8208 206.888 13.1981 206.888 12.4609C206.888 11.7238 207.142 11.1011 207.646 10.5928C208.151 10.0845 208.769 9.83209 209.5 9.83209Z" fill="white"/>
<path d="M211.03 19.0313C210.626 18.6274 210.135 18.4221 209.56 18.4086C209.54 18.4086 209.52 18.4019 209.5 18.4019C209.407 18.4019 209.323 18.4154 209.233 18.4254C209.19 18.4288 209.143 18.4288 209.103 18.4389C209.076 18.4423 209.049 18.449 209.026 18.4557C208.625 18.5399 208.274 18.7284 207.97 19.0347C207.553 19.4554 207.345 19.9671 207.345 20.5763V37.5308H211.655V20.573C211.655 19.9671 211.445 19.4521 211.03 19.0313Z" fill="white"/>
<path d="M175.769 21.7578C175.415 20.9937 174.894 20.3272 174.199 19.7584C173.504 19.1862 172.655 18.7284 171.646 18.3851C170.638 18.0417 169.478 17.8701 168.169 17.8701C166.682 17.8701 165.316 18.1191 164.066 18.6139C162.82 19.1087 161.735 19.8089 160.816 20.7076C159.894 21.6097 159.176 22.6902 158.661 23.9457C158.143 25.2012 157.886 26.5947 157.886 28.1161C157.886 29.715 158.15 31.1321 158.681 32.364C159.212 33.596 159.934 34.6361 160.856 35.4877C161.775 36.3393 162.847 36.9788 164.07 37.413C165.292 37.8439 166.609 38.0593 168.022 38.0593C169.031 38.0593 169.956 37.9819 170.801 37.8304C171.646 37.6789 172.391 37.5005 173.033 37.2952C173.347 37.1942 173.634 37.0932 173.898 36.9889C173.901 36.9855 173.908 36.9855 173.911 36.9855C174.115 36.9014 174.302 36.7735 174.473 36.6052C174.81 36.2652 174.98 35.8478 174.98 35.3564C174.98 35.141 174.944 34.9424 174.877 34.7572C174.823 34.6024 174.747 34.4577 174.65 34.3197C174.596 34.2456 174.54 34.1716 174.473 34.1042C174.135 33.7643 173.721 33.596 173.233 33.596C172.989 33.596 172.762 33.6397 172.558 33.7239C172.558 33.7239 172.558 33.7239 172.555 33.7239C172.428 33.771 172.305 33.8215 172.164 33.8686C171.723 34.0201 171.226 34.148 170.671 34.249C170.116 34.35 169.512 34.4004 168.857 34.4004C166.916 34.4004 165.423 33.9999 164.377 33.1988C163.331 32.3977 162.707 31.3509 162.506 30.0549C163.011 30.0785 163.482 30.0987 163.923 30.1122C164.364 30.1256 164.835 30.129 165.339 30.129C167.507 30.129 169.298 29.9843 170.708 29.6914C172.121 29.3986 173.24 28.9947 174.072 28.4729C174.904 27.9546 175.485 27.3285 175.812 26.6082C176.14 25.8845 176.303 25.0766 176.303 24.188C176.297 23.3297 176.12 22.5185 175.769 21.7578ZM171.874 25.2248C171.723 25.5815 171.406 25.8979 170.928 26.1773C170.45 26.4567 169.782 26.6856 168.924 26.864C168.065 27.0424 166.946 27.1299 165.56 27.1299C165.028 27.1299 164.501 27.1299 163.973 27.1299C163.442 27.1299 162.887 27.1164 162.309 27.0929C162.332 26.3557 162.479 25.632 162.743 24.9218C163.007 24.2116 163.381 23.5821 163.859 23.0369C164.337 22.4916 164.932 22.054 165.636 21.7241C166.341 21.3943 167.16 21.2293 168.095 21.2293C169.231 21.2293 170.18 21.4717 170.948 21.953C171.717 22.4343 172.101 23.158 172.101 24.1241C172.101 24.4977 172.024 24.868 171.874 25.2248Z" fill="white"/>
<path d="M200.801 10.0912C200.387 9.67723 199.882 9.46854 199.284 9.46854C198.686 9.46854 198.179 9.67723 197.768 10.0912C197.357 10.5053 197.153 11.0102 197.15 11.6093C197.15 11.6127 197.15 11.616 197.15 11.6228C197.15 11.6261 197.15 11.6295 197.15 11.6362V20.8086C196.518 19.994 195.65 19.304 194.541 18.7317C193.431 18.1595 192.145 17.8734 190.685 17.8734C189.299 17.8734 188.019 18.1225 186.847 18.6173C185.674 19.1121 184.652 19.8122 183.783 20.7109C182.915 21.613 182.233 22.68 181.742 23.912C181.251 25.144 181.004 26.4971 181.004 27.968C181.004 29.4154 181.261 30.7618 181.779 32.0072C182.293 33.2526 183.008 34.3196 183.917 35.2083C184.826 36.0969 185.901 36.797 187.151 37.3019C188.4 37.8102 189.767 38.066 191.253 38.066C192.716 38.066 194.063 37.8371 195.299 37.3793C196.535 36.9216 197.604 36.2349 198.513 35.3227C199.421 34.4072 200.133 33.2661 200.651 31.8928C201.169 30.5194 201.426 28.9071 201.426 27.0525V11.6194C201.422 11.0169 201.215 10.5053 200.801 10.0912ZM196.712 30.479C196.421 31.2431 196.024 31.8894 195.519 32.4212C195.015 32.953 194.404 33.3738 193.685 33.6767C192.967 33.983 192.179 34.1345 191.323 34.1345C190.441 34.1345 189.646 33.9763 188.941 33.6599C188.237 33.3435 187.625 32.9127 187.107 32.364C186.59 31.8187 186.192 31.1691 185.918 30.4218C185.641 29.6712 185.501 28.8533 185.501 27.9647C185.501 27.076 185.638 26.2514 185.918 25.4873C186.195 24.7266 186.593 24.0736 187.107 23.5249C187.625 22.9796 188.237 22.5488 188.941 22.229C189.646 21.9092 190.441 21.7544 191.323 21.7544C192.179 21.7544 192.967 21.9126 193.685 22.229C194.404 22.5454 195.015 22.9864 195.519 23.5417C196.024 24.1005 196.421 24.7602 196.712 25.5243C197.003 26.2884 197.146 27.0996 197.146 27.9613C197.146 28.8802 197.003 29.7183 196.712 30.479Z" fill="white"/>
<path d="M129.209 22.5757C128.755 21.5726 128.12 20.721 127.298 20.0243C126.48 19.3275 125.501 18.7923 124.369 18.4254C123.233 18.0585 122 17.8734 120.664 17.8734C119.327 17.8734 118.098 18.0585 116.976 18.4254C115.853 18.7923 114.884 19.3275 114.066 20.0243C113.247 20.7244 112.603 21.576 112.138 22.5757C111.67 23.5788 111.44 24.7165 111.44 25.9855V35.3597C111.44 35.969 111.647 36.4806 112.065 36.9014C112.482 37.3221 112.99 37.5308 113.595 37.5308C114.199 37.5308 114.707 37.3221 115.125 36.9014C115.542 36.4806 115.749 35.969 115.749 35.3597V27.0895C115.749 25.3627 116.16 24.0466 116.979 23.1446C117.797 22.2425 119.027 21.7914 120.667 21.7914C122.281 21.7914 123.503 22.2425 124.335 23.1446C125.167 24.0466 125.585 25.3627 125.585 27.0895V35.3564C125.585 35.9656 125.792 36.4772 126.209 36.898C126.627 37.3187 127.135 37.5274 127.739 37.5274C128.344 37.5274 128.852 37.3187 129.269 36.898C129.687 36.4772 129.894 35.9656 129.894 35.3564V25.9855C129.891 24.7165 129.664 23.5788 129.209 22.5757Z" fill="white"/>
<path d="M151.876 27.9108C150.717 27.0356 149.09 26.4567 146.999 26.1773L143.14 25.6825C142.108 25.558 141.313 25.319 140.758 24.979C140.204 24.6357 139.926 24.1342 139.926 23.4744C139.926 21.9261 141.39 21.1519 144.313 21.1519C145.372 21.1519 146.304 21.236 147.112 21.3976C147.917 21.5625 148.612 21.7544 149.193 21.9698C149.29 22.0068 149.364 22.0405 149.451 22.0775C149.491 22.0977 149.531 22.1146 149.574 22.128C149.758 22.1953 149.955 22.2324 150.169 22.2324C150.643 22.2324 151.044 22.0674 151.372 21.7376C151.699 21.4077 151.863 21.0038 151.863 20.5258C151.863 20.0478 151.699 19.6439 151.372 19.3141C151.208 19.1491 151.027 19.0279 150.83 18.9472C150.827 18.9472 150.827 18.9438 150.824 18.9438C150.683 18.8765 150.543 18.8092 150.386 18.7486C148.936 18.1629 146.902 17.8734 144.279 17.8734C142.716 17.8734 141.386 18.0316 140.29 18.348C139.195 18.6678 138.306 19.1054 137.625 19.6608C136.943 20.2195 136.445 20.8624 136.131 21.5861C135.817 22.3098 135.66 23.0772 135.66 23.8918C135.66 24.8309 135.831 25.6387 136.171 26.3119C136.512 26.9851 136.983 27.5506 137.588 28.0084C138.192 28.4662 138.917 28.8263 139.763 29.0956C140.608 29.3615 141.533 29.5467 142.542 29.6476L145.492 29.991C146.852 30.1424 147.797 30.405 148.328 30.7719C148.856 31.1388 149.123 31.6807 149.123 32.3909C149.123 33.2291 148.706 33.8181 147.874 34.1614C147.042 34.5048 145.97 34.6764 144.66 34.6764C143.651 34.6764 142.719 34.6024 141.861 34.4475C141.002 34.2927 140.24 34.1109 139.572 33.8955C139.104 33.744 138.71 33.5993 138.346 33.4546C138.326 33.4445 138.306 33.4377 138.286 33.431C138.096 33.357 137.888 33.3166 137.665 33.3166C137.19 33.3166 136.789 33.4815 136.465 33.808C136.138 34.1379 135.974 34.5384 135.974 35.0164C135.974 35.4944 136.138 35.8949 136.465 36.2248C136.622 36.3863 136.799 36.5042 136.993 36.5849C137.003 36.5883 137.013 36.595 137.027 36.5984C137.397 36.7499 137.812 36.9013 138.286 37.0562C139.104 37.3221 140.07 37.5577 141.179 37.7597C142.288 37.9616 143.524 38.066 144.884 38.066C147.707 38.066 149.868 37.4938 151.368 36.3527C152.868 35.2083 153.62 33.6868 153.62 31.7817C153.617 30.0751 153.035 28.7859 151.876 27.9108Z" fill="white"/>
<path d="M81.497 27.9108C80.3378 27.0356 78.7108 26.4567 76.6196 26.1773L72.761 25.6825C71.7287 25.558 70.9336 25.319 70.3791 24.979C69.8245 24.6357 69.5472 24.1342 69.5472 23.4744C69.5472 21.9261 71.0105 21.1519 73.9336 21.1519C74.9926 21.1519 75.9247 21.236 76.7331 21.3976C77.5382 21.5625 78.2331 21.7544 78.8144 21.9698C78.9113 22.0068 78.9848 22.0405 79.0716 22.0775C79.1117 22.0977 79.1518 22.1146 79.1952 22.128C79.379 22.1953 79.5761 22.2324 79.7899 22.2324C80.2643 22.2324 80.6652 22.0674 80.9926 21.7376C81.32 21.4077 81.4836 21.0038 81.4836 20.5258C81.4836 20.0478 81.32 19.6439 80.9926 19.3141C80.8289 19.1491 80.6485 19.0279 80.4514 18.9472C80.448 18.9472 80.448 18.9438 80.4447 18.9438C80.3044 18.8765 80.1641 18.8092 80.007 18.7486C78.5572 18.1629 76.5227 17.8734 73.9002 17.8734C72.3367 17.8734 71.0071 18.0316 69.9114 18.348C68.8156 18.6678 67.927 19.1054 67.2455 19.6608C66.564 20.2195 66.0662 20.8624 65.7522 21.5861C65.4381 22.3098 65.2811 23.0772 65.2811 23.8918C65.2811 24.8309 65.4515 25.6387 65.7923 26.3119C66.133 26.9851 66.6041 27.5506 67.2087 28.0084C67.8134 28.4662 68.5383 28.8263 69.3835 29.0956C70.2287 29.3615 71.1541 29.5467 72.163 29.6476L75.1129 29.991C76.4726 30.1424 77.418 30.405 77.9492 30.7719C78.477 31.1388 78.7443 31.6807 78.7443 32.3909C78.7443 33.2291 78.3267 33.8181 77.4948 34.1614C76.663 34.5048 75.5906 34.6764 74.281 34.6764C73.2721 34.6764 72.3401 34.6024 71.4815 34.4475C70.6229 34.2927 69.8613 34.1109 69.1931 33.8955C68.7254 33.744 68.3312 33.5993 67.9671 33.4546C67.947 33.4445 67.927 33.4377 67.9069 33.431C67.7165 33.357 67.5094 33.3166 67.2856 33.3166C66.8112 33.3166 66.4103 33.4815 66.0862 33.808C65.7589 34.1379 65.5952 34.5384 65.5952 35.0164C65.5952 35.4944 65.7589 35.8949 66.0862 36.2248C66.2433 36.3863 66.4203 36.5042 66.6141 36.5849C66.6241 36.5883 66.6341 36.595 66.6475 36.5984C67.0183 36.7499 67.4326 36.9013 67.9069 37.0562C68.7254 37.3221 69.6909 37.5577 70.8 37.7597C71.9091 37.9616 73.1452 38.066 74.5049 38.066C77.3278 38.066 79.4892 37.4938 80.9892 36.3527C82.4892 35.2083 83.2409 33.6868 83.2409 31.7817C83.2375 30.0751 82.6562 28.7859 81.497 27.9108Z" fill="white"/>
<path d="M105.614 21.7578C105.26 20.9937 104.738 20.3272 104.044 19.7584C103.349 19.1862 102.5 18.7284 101.491 18.3851C100.482 18.0417 99.3232 17.8701 98.0136 17.8701C96.527 17.8701 95.1606 18.1191 93.9112 18.6139C92.6651 19.1087 91.5794 19.8089 90.6607 20.7076C89.7386 21.6097 89.0204 22.6902 88.5059 23.9457C87.9881 25.2012 87.7308 26.5947 87.7308 28.1161C87.7308 29.715 87.9948 31.1321 88.5259 32.364C89.0571 33.596 89.7787 34.6361 90.7007 35.4877C91.6194 36.3393 92.6918 36.9788 93.9145 37.413C95.1372 37.8439 96.4535 38.0593 97.8666 38.0593C98.8755 38.0593 99.8009 37.9819 100.646 37.8304C101.491 37.6789 102.236 37.5005 102.878 37.2952C103.192 37.1942 103.479 37.0932 103.743 36.9889C103.746 36.9855 103.753 36.9855 103.756 36.9855C103.96 36.9014 104.147 36.7735 104.318 36.6052C104.655 36.2652 104.825 35.8478 104.825 35.3564C104.825 35.141 104.789 34.9424 104.722 34.7572C104.668 34.6024 104.591 34.4577 104.495 34.3197C104.441 34.2456 104.384 34.1716 104.318 34.1042C103.98 33.7643 103.566 33.596 103.078 33.596C102.834 33.596 102.607 33.6397 102.403 33.7239C102.403 33.7239 102.403 33.7239 102.4 33.7239C102.273 33.771 102.149 33.8215 102.009 33.8686C101.568 34.0201 101.07 34.148 100.516 34.249C99.9612 34.35 99.3566 34.4004 98.7018 34.4004C96.7608 34.4004 95.2675 33.9999 94.2219 33.1988C93.1762 32.3977 92.5515 31.3509 92.3511 30.0549C92.8555 30.0785 93.3266 30.0987 93.7675 30.1122C94.2085 30.1256 94.6796 30.129 95.184 30.129C97.3521 30.129 99.1428 29.9843 100.553 29.6914C101.966 29.3986 103.085 28.9947 103.917 28.4729C104.748 27.9546 105.33 27.3285 105.657 26.6082C105.985 25.8845 106.148 25.0766 106.148 24.188C106.142 23.3297 105.965 22.5185 105.614 21.7578ZM101.718 25.2248C101.568 25.5815 101.251 25.8979 100.773 26.1773C100.295 26.4567 99.6272 26.6856 98.7686 26.864C97.91 27.0424 96.7909 27.1299 95.4045 27.1299C94.8733 27.1299 94.3455 27.1299 93.8176 27.1299C93.2865 27.1299 92.7319 27.1164 92.154 27.0929C92.1773 26.3557 92.3243 25.632 92.5883 24.9218C92.8522 24.2116 93.2263 23.5821 93.7041 23.0369C94.1818 22.4916 94.7764 22.054 95.4813 21.7241C96.1862 21.3943 97.0047 21.2293 97.9401 21.2293C99.076 21.2293 100.025 21.4717 100.793 21.953C101.561 22.4343 101.946 23.158 101.946 24.1241C101.946 24.4977 101.869 24.868 101.718 25.2248Z" fill="white"/>
<path d="M235 25.9855C235 24.5112 234.756 23.2556 234.262 22.2155C233.771 21.1755 233.082 20.3373 232.2 19.7011C231.318 19.065 230.266 18.6038 229.043 18.311C227.821 18.0182 226.464 17.8734 224.978 17.8734C223.742 17.8734 222.723 17.9508 221.914 18.1023C221.106 18.2538 220.464 18.4658 219.987 18.7317C219.897 18.7822 219.82 18.8327 219.74 18.8866C219.713 18.9034 219.686 18.9169 219.659 18.9371C219.576 18.9943 219.496 19.0582 219.422 19.1357C219.095 19.4655 218.928 19.8728 218.928 20.3508C218.928 20.8321 219.091 21.236 219.422 21.5659C219.75 21.8958 220.154 22.0607 220.628 22.0607C220.859 22.0607 221.072 22.0203 221.266 21.9429C221.28 21.9395 221.29 21.9328 221.303 21.9294C221.353 21.9092 221.39 21.8924 221.443 21.8756C222.312 21.5457 223.468 21.3808 224.904 21.3808C225.763 21.3808 226.545 21.4447 227.249 21.5726C227.954 21.7005 228.559 21.9294 229.063 22.2593C229.568 22.5892 229.965 23.0469 230.256 23.6326C230.547 24.2183 230.69 24.9521 230.69 25.8407C230.263 25.7902 229.618 25.733 228.763 25.6691C227.904 25.6051 226.999 25.5748 226.04 25.5748C224.376 25.5748 222.963 25.7094 221.804 25.9754C220.645 26.2413 219.706 26.6418 218.988 27.1737C218.27 27.7088 217.752 28.3686 217.438 29.1562C217.12 29.9439 216.963 30.8594 216.963 31.8995C216.963 32.6871 217.097 33.4546 217.361 34.2052C217.625 34.9558 218.116 35.6156 218.834 36.1878C219.552 36.76 220.535 37.2178 221.784 37.5611C223.033 37.9044 224.64 38.0761 226.605 38.0761C227.587 38.0761 228.532 38.0492 229.441 37.9987C230.35 37.9482 231.168 37.891 231.9 37.827C232.217 37.8001 232.511 37.7732 232.792 37.7429C233.41 37.6924 233.931 37.5274 234.359 37.0932C234.786 36.6624 235 36.1306 235 35.5045C235 35.4944 234.997 35.4843 234.997 35.4742H235V25.9855ZM230.727 34.5586C230.5 34.6091 230.046 34.6798 229.364 34.7673C228.683 34.8548 227.764 34.902 226.605 34.902C225.569 34.902 224.707 34.8313 224.016 34.6933C223.321 34.5553 222.773 34.3499 222.372 34.084C221.968 33.8181 221.684 33.4916 221.52 33.1113C221.356 32.7309 221.273 32.3102 221.273 31.8524C221.273 30.7349 221.664 29.9169 222.445 29.3952C223.227 28.8735 224.473 28.6143 226.19 28.6143C227.577 28.6143 228.616 28.6648 229.311 28.7658C230.002 28.8667 230.477 28.9442 230.727 28.9947V34.5586Z" fill="white"/>
</g>
<defs>
<clipPath id="clip0_8_5">
<rect width="235" height="56" fill="white"/>
</clipPath>
</defs>
</svg>
